<mxfile host="app.diagrams.net" agent="Mozilla/5.0 (Windows NT 10.0; Win64; x64) AppleWebKit/537.36 (KHTML, like Gecko) Chrome/136.0.0.0 Safari/537.36" version="27.1.1">
  <diagram name="Page-1" id="-RMUg_EaMTAIYC8fSIRP">
    <mxGraphModel grid="0" page="1" gridSize="10" guides="1" tooltips="1" connect="1" arrows="1" fold="1" pageScale="1" pageWidth="850" pageHeight="1100" math="0" shadow="0">
      <root>
        <mxCell id="0" />
        <mxCell id="1" parent="0" />
        <mxCell id="-KeOXn2hHHFXlTZdy_Tg-2" value="&lt;h1&gt;&lt;font style=&quot;font-size: 35px;&quot; face=&quot;Walbaum Display&quot;&gt;&lt;i style=&quot;&quot;&gt;Real Talk for South Auckland&lt;/i&gt;&lt;/font&gt;&lt;/h1&gt;" style="rounded=0;whiteSpace=wrap;html=1;" vertex="1" parent="1">
          <mxGeometry width="848" height="60" as="geometry" />
        </mxCell>
        <mxCell id="-KeOXn2hHHFXlTZdy_Tg-3" value="" style="rounded=0;whiteSpace=wrap;html=1;align=left;" vertex="1" parent="1">
          <mxGeometry x="4" y="75" width="843" height="1019" as="geometry" />
        </mxCell>
        <mxCell id="-KeOXn2hHHFXlTZdy_Tg-5" value="" style="rounded=0;whiteSpace=wrap;html=1;" vertex="1" parent="1">
          <mxGeometry x="222" y="278" width="404" height="545" as="geometry" />
        </mxCell>
        <mxCell id="-KeOXn2hHHFXlTZdy_Tg-6" value="" style="ellipse;whiteSpace=wrap;html=1;aspect=fixed;" vertex="1" parent="1">
          <mxGeometry x="16" y="79" width="199" height="199" as="geometry" />
        </mxCell>
        <mxCell id="-KeOXn2hHHFXlTZdy_Tg-7" value="" style="ellipse;whiteSpace=wrap;html=1;aspect=fixed;" vertex="1" parent="1">
          <mxGeometry x="613" y="77" width="201" height="201" as="geometry" />
        </mxCell>
        <mxCell id="-KeOXn2hHHFXlTZdy_Tg-8" value="" style="ellipse;whiteSpace=wrap;html=1;aspect=fixed;" vertex="1" parent="1">
          <mxGeometry x="16" y="833" width="243" height="243" as="geometry" />
        </mxCell>
        <mxCell id="-KeOXn2hHHFXlTZdy_Tg-9" value="" style="ellipse;whiteSpace=wrap;html=1;aspect=fixed;" vertex="1" parent="1">
          <mxGeometry x="582" y="825" width="252" height="252" as="geometry" />
        </mxCell>
        <mxCell id="-KeOXn2hHHFXlTZdy_Tg-14" value="" style="line;strokeWidth=4;direction=south;html=1;perimeter=backbonePerimeter;points=[];outlineConnect=0;" vertex="1" parent="1">
          <mxGeometry x="110.5" y="285" width="10" height="530" as="geometry" />
        </mxCell>
        <mxCell id="-KeOXn2hHHFXlTZdy_Tg-15" value="" style="line;strokeWidth=4;direction=south;html=1;" vertex="1" parent="1">
          <mxGeometry x="713" y="285" width="10" height="527" as="geometry" />
        </mxCell>
        <mxCell id="-KeOXn2hHHFXlTZdy_Tg-16" value="" style="line;strokeWidth=4;html=1;" vertex="1" parent="1">
          <mxGeometry x="265" y="949.5" width="305" height="10" as="geometry" />
        </mxCell>
        <mxCell id="-KeOXn2hHHFXlTZdy_Tg-17" value="" style="line;strokeWidth=4;html=1;" vertex="1" parent="1">
          <mxGeometry x="222" y="168" width="382" height="10" as="geometry" />
        </mxCell>
      </root>
    </mxGraphModel>
  </diagram>
</mxfile>
